<svg xmlns="http://www.w3.org/2000/svg" width="1200" height="320" viewBox="0 0 1200 320" role="img" aria-labelledby="title desc">
  <title id="title">RareDxAI</title>
  <desc id="desc">RareDxAI wordmark with biomedical network accents.</desc>
  <defs>
    <linearGradient id="aiGradient" x1="0" y1="0" x2="1" y2="1">
      <stop offset="0%" stop-color="#79D5A5"/>
      <stop offset="100%" stop-color="#14C6D2"/>
    </linearGradient>
    <linearGradient id="blueGradient" x1="0" y1="0" x2="1" y2="1">
      <stop offset="0%" stop-color="#1C75E8"/>
      <stop offset="100%" stop-color="#75D8D8"/>
    </linearGradient>
    <filter id="softShadow" x="-20%" y="-20%" width="140%" height="140%">
      <feDropShadow dx="0" dy="12" stdDeviation="16" flood-color="#153C7B" flood-opacity="0.12"/>
    </filter>
  </defs>

  <rect width="1200" height="320" fill="#ffffff"/>

  <g opacity="0.55" fill="none" stroke="#7CB7F2" stroke-width="2">
    <path d="M0 216 C 76 196, 132 238, 202 216 S 324 186, 400 230" opacity="0.25"/>
    <path d="M0 236 C 82 214, 138 254, 210 232 S 326 204, 416 248" opacity="0.22"/>
    <path d="M0 256 C 92 234, 146 272, 218 250 S 346 218, 438 266" opacity="0.18"/>
  </g>

  <g opacity="0.75">
    <circle cx="185" cy="170" r="8" fill="#1F86E5"/>
    <circle cx="228" cy="142" r="8" fill="#2D91E8"/>
    <circle cx="270" cy="164" r="9" fill="#2888E1"/>
    <circle cx="312" cy="132" r="8" fill="#63B4EF"/>
    <circle cx="350" cy="176" r="7" fill="#78BFF0"/>
    <line x1="185" y1="170" x2="228" y2="142" stroke="#91C6F4" stroke-width="2"/>
    <line x1="228" y1="142" x2="270" y2="164" stroke="#91C6F4" stroke-width="2"/>
    <line x1="270" y1="164" x2="312" y2="132" stroke="#91C6F4" stroke-width="2"/>
    <line x1="312" y1="132" x2="350" y2="176" stroke="#91C6F4" stroke-width="2"/>
    <line x1="185" y1="170" x2="270" y2="164" stroke="#91C6F4" stroke-width="2"/>
  </g>

  <g filter="url(#softShadow)">
    <text x="426" y="194"
          font-family="Inter, ui-sans-serif, system-ui, -apple-system, BlinkMacSystemFont, 'Segoe UI', sans-serif"
          font-size="86"
          font-weight="800"
          letter-spacing="-1"
          fill="#082779">RareDx</text>
    <text x="776" y="194"
          font-family="Inter, ui-sans-serif, system-ui, -apple-system, BlinkMacSystemFont, 'Segoe UI', sans-serif"
          font-size="86"
          font-weight="800"
          letter-spacing="-1"
          fill="url(#aiGradient)">AI</text>
  </g>

  <g opacity="0.75">
    <circle cx="904" cy="176" r="8" fill="#2B8DE8"/>
    <circle cx="944" cy="148" r="8" fill="#42D0D1"/>
    <circle cx="976" cy="188" r="9" fill="#2F8FE8"/>
    <circle cx="1024" cy="166" r="8" fill="#6DD6D2"/>
    <circle cx="1064" cy="202" r="7" fill="#92DDE0"/>
    <line x1="904" y1="176" x2="944" y2="148" stroke="url(#blueGradient)" stroke-width="2"/>
    <line x1="944" y1="148" x2="976" y2="188" stroke="url(#blueGradient)" stroke-width="2"/>
    <line x1="976" y1="188" x2="1024" y2="166" stroke="url(#blueGradient)" stroke-width="2"/>
    <line x1="1024" y1="166" x2="1064" y2="202" stroke="url(#blueGradient)" stroke-width="2"/>
    <line x1="904" y1="176" x2="976" y2="188" stroke="url(#blueGradient)" stroke-width="2"/>
    <line x1="944" y1="148" x2="1024" y2="166" stroke="url(#blueGradient)" stroke-width="2"/>
  </g>

  <g opacity="0.18" fill="#1C75E8">
    <circle cx="908" cy="76" r="2"/>
    <circle cx="924" cy="76" r="2"/>
    <circle cx="940" cy="76" r="2"/>
    <circle cx="956" cy="76" r="2"/>
    <circle cx="972" cy="76" r="2"/>
    <circle cx="916" cy="92" r="2"/>
    <circle cx="932" cy="92" r="2"/>
    <circle cx="948" cy="92" r="2"/>
    <circle cx="964" cy="92" r="2"/>
    <circle cx="980" cy="92" r="2"/>
    <circle cx="924" cy="108" r="2"/>
    <circle cx="940" cy="108" r="2"/>
    <circle cx="956" cy="108" r="2"/>
    <circle cx="972" cy="108" r="2"/>
  </g>

  <g opacity="0.18" fill="#1C75E8">
    <circle cx="148" cy="112" r="2"/>
    <circle cx="164" cy="112" r="2"/>
    <circle cx="180" cy="112" r="2"/>
    <circle cx="196" cy="112" r="2"/>
    <circle cx="212" cy="112" r="2"/>
    <circle cx="156" cy="128" r="2"/>
    <circle cx="172" cy="128" r="2"/>
    <circle cx="188" cy="128" r="2"/>
    <circle cx="204" cy="128" r="2"/>
    <circle cx="220" cy="128" r="2"/>
    <circle cx="164" cy="144" r="2"/>
    <circle cx="180" cy="144" r="2"/>
    <circle cx="196" cy="144" r="2"/>
    <circle cx="212" cy="144" r="2"/>
  </g>
</svg>
